<svg height="512pt" viewBox="0 -31 512 512" width="512pt" xmlns="http://www.w3.org/2000/svg"><path d="m408.71875 449.234375c-3.902344 0-7.742188-1.523437-10.609375-4.394531l-87.632813-87.671875h-207.195312c-56.949219 0-103.28125-45.101563-103.28125-100.539063v-156.089844c0-55.4375 46.332031-100.539062 103.28125-100.539062h305.4375c56.949219 0 103.28125 45.101562 103.28125 100.539062v156.089844c0 50.480469-38.414062 92.390625-88.28125 99.480469v78.125c0 6.066406-3.65625 11.539063-9.265625 13.859375-1.851563.765625-3.800781 1.140625-5.734375 1.140625zm0 0" fill="#ff415b"/><path d="m408.71875 0h-152.71875v357.167969h54.476562l87.632813 87.671875c2.867187 2.871094 6.707031 4.394531 10.609375 4.394531 1.933594 0 3.882812-.375 5.734375-1.140625 5.609375-2.324219 9.265625-7.792969 9.265625-13.859375v-78.125c49.867188-7.089844 88.28125-49 88.28125-99.480469v-156.089844c0-55.4375-46.332031-100.539062-103.28125-100.539062zm0 0" fill="#c7011c"/><path d="m255.734375 273.273438c-3.816406 0-7.632813-1.449219-10.554687-4.34375l-73.867188-73.148438c-10.691406-10.511719-16.601562-24.5625-16.601562-39.519531s5.90625-29.003907 16.640624-39.558594c21.984376-21.617187 57.757813-21.617187 79.742188 0l4.90625 4.824219 4.90625-4.824219c21.984375-21.617187 57.757812-21.613281 79.742188 0 10.730468 10.554687 16.640624 24.601563 16.640624 39.558594s-5.910156 29.007812-16.640624 39.558593l-74.394532 73.148438c-2.921875 2.871094-6.722656 4.304688-10.519531 4.304688zm0 0" fill="#ededf2"/><path d="m340.648438 116.703125c-21.984376-21.617187-57.757813-21.617187-79.742188 0l-4.90625 4.824219v151.734375c3.710938-.066407 7.402344-1.488281 10.253906-4.292969l74.394532-73.148438c10.730468-10.550781 16.640624-24.597656 16.640624-39.554687 0-14.960937-5.90625-29.007813-16.640624-39.5625zm0 0" fill="#e2e2e7"/></svg>